<svg data-v-423bf9ae="" xmlns="http://www.w3.org/2000/svg" viewBox="0 0 67.38308936064043 60" class="font"><!----><!----><!----><g data-v-423bf9ae="" id="2bb75cac-a4a8-42ee-be94-4111bb4f20c7" fill="black" transform="matrix(6.380974693981872,0,0,6.380974693981872,-0.38285810795487407,-22.506008260027542)"><path d="M8.95 4.51L8.95 4.51Q8.91 3.92 9.52 5.00L9.52 5.00L10.62 3.94L10.62 3.94Q10.21 3.66 9.90 3.57L9.90 3.57L9.90 3.57Q9.59 3.47 9.08 3.62L9.08 3.62L9.08 3.62Q8.57 3.77 7.85 4.52L7.85 4.52L5.23 7.41L5.23 7.41Q2.42 3.42 1.94 3.53L1.94 3.53L1.94 3.53Q1.47 3.64 0.06 5.17L0.06 5.17L0.27 5.32L0.27 5.32Q1.20 4.51 2.04 5.34L2.04 5.34L2.04 5.34Q1.16 5.84 1.20 6.18L1.20 6.18L1.20 11.15L1.20 11.15Q1.07 11.87 0.14 12.90L0.14 12.90L0.31 12.93L0.31 12.93Q0.68 12.65 2.52 12.70L2.52 12.70L3.62 11.40L3.45 11.27L3.45 11.27Q3.12 11.51 1.57 11.45L1.57 11.45L1.57 11.45Q2.37 10.95 2.50 10.68L2.50 10.68L2.52 5.84L4.69 9.05L4.69 9.05Q5.21 9.58 4.77 10.30L4.77 10.30L4.92 10.48L5.73 9.50L5.73 9.50Q6.28 8.73 5.51 7.89L5.51 7.89L7.66 5.41L7.66 11.15L7.66 11.15Q7.44 11.87 6.51 12.90L6.51 12.90L6.69 12.93L6.69 12.93Q7.05 12.65 8.89 12.70L8.89 12.70L9.99 11.40L9.82 11.27L9.82 11.27Q9.49 11.51 7.94 11.45L7.94 11.45L7.94 11.45Q8.47 11.02 8.95 10.75L8.95 10.75L8.95 4.51Z"></path></g><!----><!----></svg>